<svg width="1109.9124511718749px" height="207.21248779296874px" xmlns="http://www.w3.org/2000/svg" viewBox="-304.95622558593743 -28.606243896484372 1109.9124511718749 207.21248779296874" style="background: none;" preserveAspectRatio="xMidYMid"><defs><filter id="editing-lego" x="-100%" y="-100%" width="300%" height="300%"><feFlood flood-color="#000" result="f1"></feFlood><feFlood flood-color="none" result="f2"></feFlood><feMorphology operator="dilate" radius="3" in="SourceAlpha"></feMorphology><feConvolveMatrix order="5,5" divisor="1" result="cm1" kernelMatrix="0 1 1 1 0  1 0 0 0 1  1 0 0 0 1  1 0 0 0 1  0 1 1 1 0"></feConvolveMatrix><feComposite operator="in" in="f1" in2="cm1" result="c1"></feComposite><feMorphology operator="dilate" radius="3"></feMorphology><feConvolveMatrix order="5,5" divisor="1" result="cm2" kernelMatrix="0 1 1 1 0  1 0 0 0 1  1 0 0 0 1  1 0 0 0 1  0 1 1 1 0"></feConvolveMatrix><feComposite operator="in" in="f2" in2="cm2" result="c2"></feComposite><feMerge><feMergeNode in="c2"></feMergeNode><feMergeNode in="c1"></feMergeNode><feMergeNode in="SourceGraphic"></feMergeNode></feMerge></filter></defs><g filter="url(#editing-lego)"><g transform="translate(-149.18377566337585, 129.27999877929688)"><path d="M12.04 0L-1.53 0L19.82-77.88L44.49-77.88L49.91-33.39L71.86-77.88L92.51-77.88L94.64-19.59L94.64-19.59Q95.11-8.02 100.77-4.48L100.77-4.48L100.77-4.48Q99.47-2.12 95.70 0.12L95.70 0.12L95.70 0.12Q91.92 2.36 86.91 2.36L86.91 2.36L86.91 2.36Q81.89 2.36 78.94 0.94L78.94 0.94L78.94 0.94Q75.99-0.47 74.34-2.83L74.34-2.83L74.34-2.83Q71.39-7.08 71.39-15.22L71.39-15.22L71.39-51.68L48.14 0L33.51 0L25.25-52.98L12.04 0ZM131.57 2.36L131.57 2.36L131.57 2.36Q105.61 2.36 105.61-22.07L105.61-22.07L105.61-22.07Q105.61-39.41 115.17-50.62L115.17-50.62L115.17-50.62Q125.32-62.54 142.90-62.54L142.90-62.54L142.90-62.54Q155.64-62.54 162.13-56.64L162.13-56.64L162.13-56.64Q168.62-50.74 168.62-38.35L168.62-38.35L168.62-38.35Q168.62-19.47 158.47-8.50L158.47-8.50L158.47-8.50Q148.56 2.36 131.57 2.36ZM134.64-48.97L134.64-48.97L134.64-48.97Q133.22-45.78 132.10-41.01L132.10-41.01L132.10-41.01Q130.98-36.23 129.56-28.67L129.56-28.67L129.56-28.67Q128.15-21.12 128.15-11.80L128.15-11.80L128.15-11.80Q128.15-8.73 129.15-6.73L129.15-6.73L129.15-6.73Q130.15-4.72 132.87-4.72L132.87-4.72L132.87-4.72Q135.58-4.72 137.29-6.02L137.29-6.02L137.29-6.02Q139.00-7.32 140.30-10.38L140.30-10.38L140.30-10.38Q142.66-15.81 144.55-25.90L144.55-25.90L144.55-25.90Q146.44-35.99 146.62-40.36L146.62-40.36L146.62-40.36Q146.79-44.72 146.79-47.97L146.79-47.97L146.79-47.97Q146.79-51.21 145.85-53.34L145.85-53.34L145.85-53.34Q144.90-55.46 142.25-55.46L142.25-55.46L142.25-55.46Q139.59-55.46 137.82-53.81L137.82-53.81L137.82-53.81Q136.05-52.16 134.64-48.97ZM210.87-41.42L210.87-41.42L210.87-41.42Q212.52-45.78 212.52-49.56L212.52-49.56L212.52-49.56Q212.52-56.52 206.85-56.52L206.85-56.52L206.85-56.52Q203.90-56.52 201.49-53.87L201.49-53.87L201.49-53.87Q199.07-51.21 199.07-47.91L199.07-47.91L199.07-47.91Q199.07-45.55 200.95-43.66L200.95-43.66L200.95-43.66Q203.67-41.06 210.63-36.82L210.63-36.82L210.63-36.82Q217.59-32.57 220.25-29.09L220.25-29.09L220.25-29.09Q222.90-25.61 222.90-20.83L222.90-20.83L222.90-20.83Q222.90-16.05 220.60-11.68L220.60-11.68L220.60-11.68Q218.30-7.32 214.17-4.25L214.17-4.25L214.17-4.25Q205.32 2.36 191.16 2.36L191.16 2.36L191.16 2.36Q183.49 2.36 177.59-1.65L177.59-1.65L177.59-1.65Q171.69-5.55 171.69-10.15L171.69-10.15L171.69-10.15Q171.69-14.75 175.05-17.46L175.05-17.46L175.05-17.46Q178.42-20.18 183.37-20.18L183.37-20.18L183.37-20.18Q188.33-20.18 191.40-18.29L191.40-18.29L191.40-18.29Q189.86-14.40 189.86-11.80L189.86-11.80L189.86-11.80Q189.86-4.01 196.47-4.01L196.47-4.01L196.47-4.01Q199.30-4.01 201.19-5.78L201.19-5.78L201.19-5.78Q203.08-7.55 203.08-10.62L203.08-10.62L203.08-10.62Q203.08-16.64 192.93-23.01L192.93-23.01L192.93-23.01Q184.67-28.44 182.78-30.56L182.78-30.56L182.78-30.56Q179.60-34.34 179.60-39.06L179.60-39.06L179.60-39.06Q179.60-43.78 181.84-48.26L181.84-48.26L181.84-48.26Q184.08-52.75 188.21-55.93L188.21-55.93L188.21-55.93Q196.82-62.54 211.81-62.54L211.81-62.54L211.81-62.54Q219.48-62.54 224.02-59.47L224.02-59.47L224.02-59.47Q228.57-56.40 228.57-51.21L228.57-51.21L228.57-51.21Q228.57-46.02 225.44-43.07L225.44-43.07L225.44-43.07Q222.31-40.12 216.65-40.12L216.65-40.12L216.65-40.12Q212.75-40.12 210.87-41.42ZM234.82-11.80L234.82-11.80L234.82-11.80Q234.82-14.99 236.47-23.01L236.47-23.01L242.73-54.87L235.76-54.87L236.24-58.41L236.24-58.41Q250.40-62.66 264.08-73.04L264.08-73.04L269.75-73.04L266.92-60.18L276.12-60.18L275.06-54.87L265.97-54.87L259.95-23.01L259.95-23.01Q258.42-15.69 258.42-13.22L258.42-13.22L258.42-13.22Q258.42-7.55 263.38-6.37L263.38-6.37L263.38-6.37Q262.20-2.36 257.95 0L257.95 0L257.95 0Q253.70 2.36 247.68 2.36L247.68 2.36L247.68 2.36Q241.66 2.36 238.24-1.42L238.24-1.42L238.24-1.42Q234.82-5.19 234.82-11.80ZM345.98-78.71L345.98-78.71L345.98-78.71Q374.89-78.71 374.89-58.29L374.89-58.29L374.89-58.29Q374.89-47.08 367.69-40.36L367.69-40.36L367.69-40.36Q360.61-33.63 348.22-33.63L348.22-33.63L348.22-33.63Q342.44-33.63 337.95-36.93L337.95-36.93L337.95-36.93Q335.83-38.35 334.41-40.24L334.41-40.24L334.41-40.24Q343.03-40.24 347.57-45.49L347.57-45.49L347.57-45.49Q352.11-50.74 352.11-61.01L352.11-61.01L352.11-61.01Q352.11-71.27 341.96-71.27L341.96-71.27L339.13-71.27L339.13-71.27Q338.42-71.27 337.83-71.15L337.83-71.15L324.26 0L298.66 0L313.17-77.29L313.17-77.29Q325.80-78.47 333.11-78.59L333.11-78.59L333.11-78.59Q340.43-78.71 345.98-78.71ZM401.20 2.36L401.20 2.36L401.20 2.36Q375.24 2.36 375.24-22.07L375.24-22.07L375.24-22.07Q375.24-39.41 384.80-50.62L384.80-50.62L384.80-50.62Q394.95-62.54 412.53-62.54L412.53-62.54L412.53-62.54Q425.27-62.54 431.76-56.64L431.76-56.64L431.76-56.64Q438.25-50.74 438.25-38.35L438.25-38.35L438.25-38.35Q438.25-19.47 428.10-8.50L428.10-8.50L428.10-8.50Q418.19 2.36 401.20 2.36ZM404.27-48.97L404.27-48.97L404.27-48.97Q402.85-45.78 401.73-41.01L401.73-41.01L401.73-41.01Q400.61-36.23 399.19-28.67L399.19-28.67L399.19-28.67Q397.78-21.12 397.78-11.80L397.78-11.80L397.78-11.80Q397.78-8.73 398.78-6.73L398.78-6.73L398.78-6.73Q399.78-4.72 402.50-4.72L402.50-4.72L402.50-4.72Q405.21-4.72 406.92-6.02L406.92-6.02L406.92-6.02Q408.63-7.32 409.93-10.38L409.93-10.38L409.93-10.38Q412.29-15.81 414.18-25.90L414.18-25.90L414.18-25.90Q416.07-35.99 416.25-40.36L416.25-40.36L416.25-40.36Q416.42-44.72 416.42-47.97L416.42-47.97L416.42-47.97Q416.42-51.21 415.48-53.34L415.48-53.34L415.48-53.34Q414.53-55.46 411.88-55.46L411.88-55.46L411.88-55.46Q409.22-55.46 407.45-53.81L407.45-53.81L407.45-53.81Q405.68-52.16 404.27-48.97ZM500.20-8.08L500.20-8.08L500.20-8.08Q495.25-3.07 488.46-0.35L488.46-0.35L488.46-0.35Q481.68 2.36 474.95 2.36L474.95 2.36L474.95 2.36Q468.22 2.36 465.86 1.18L465.86 1.18L462.21 21.24L438.25 23.60L454.54-60.18L473.77-62.19L472.24-54.04L472.24-54.04Q477.19-62.42 487.46-62.42L487.46-62.42L487.46-62.42Q499.02-62.42 505.16-54.99L505.16-54.99L505.16-54.99Q510.59-48.26 510.59-38.00L510.59-38.00L510.59-38.00Q510.59-27.73 507.87-20.41L507.87-20.41L507.87-20.41Q505.16-13.10 500.20-8.08ZM473.53-41.18L467.28-6.61L467.28-6.61Q469.76-4.48 472.83-4.48L472.83-4.48L472.83-4.48Q475.89-4.48 477.66-5.66L477.66-5.66L477.66-5.66Q479.43-6.84 480.73-9.20L480.73-9.20L480.73-9.20Q484.27-15.58 487.10-34.93L487.10-34.93L487.10-34.93Q487.93-40.59 487.93-46.14L487.93-46.14L487.93-46.14Q487.93-51.68 486.69-53.45L486.69-53.45L486.69-53.45Q485.45-55.22 483.09-55.22L483.09-55.22L483.09-55.22Q475.89-55.22 473.53-41.18L473.53-41.18ZM555.54-4.96L555.54-4.96L555.54-4.96Q549.88 2.36 535.84 2.36L535.84 2.36L535.84 2.36Q528.52 2.36 523.21-2.06L523.21-2.06L523.21-2.06Q517.90-6.49 517.90-12.86L517.90-12.86L517.90-12.86Q517.90-16.40 518.26-18.17L518.26-18.17L526.16-60.18L550.12-62.54L541.50-16.99L541.50-16.99Q541.03-14.40 541.03-12.86L541.03-12.86L541.03-12.86Q541.03-6.02 545.16-6.02L545.16-6.02L545.16-6.02Q549.76-6.02 553.07-12.27L553.07-12.27L553.07-12.27Q554.13-14.28 554.60-16.87L554.60-16.87L562.98-60.18L586.22-62.54L577.49-16.52L577.49-16.52Q577.14-14.75 577.14-12.86L577.14-12.86L577.14-12.86Q577.14-10.97 578.20-8.91L578.20-8.91L578.20-8.91Q579.26-6.84 582.68-6.37L582.68-6.37L582.68-6.37Q581.98-3.54 579.50-1.65L579.50-1.65L579.50-1.65Q574.31 2.36 568.70 2.36L568.70 2.36L568.70 2.36Q563.10 2.36 559.79 0.35L559.79 0.35L559.79 0.35Q556.49-1.65 555.54-4.96ZM620.80-6.49L620.80-6.49L620.80-6.49Q617.14 2.36 605.46 2.36L605.46 2.36L605.46 2.36Q599.56 2.36 595.78-1.77L595.78-1.77L595.78-1.77Q592.71-5.19 592.71-9.09L592.71-9.09L592.71-9.09Q592.71-17.94 596.84-37.29L596.84-37.29L605.46-82.60L629.41-84.96L617.97-25.25L617.97-25.25Q615.96-16.52 615.96-13.45L615.96-13.45L615.96-13.45Q615.96-6.73 620.80-6.49ZM635.96-3.54L635.96-3.54L635.96-3.54Q633.19-6.61 631.95-11.45L631.95-11.45L631.95-11.45Q630.71-16.28 630.71-24.19L630.71-24.19L630.71-24.19Q630.71-32.10 633.42-39.29L633.42-39.29L633.42-39.29Q636.14-46.49 641.09-51.68L641.09-51.68L641.09-51.68Q651.24-62.54 668.00-62.54L668.00-62.54L668.00-62.54Q674.02-62.54 678.38-60.53L678.38-60.53L698.56-62.54L689.83-16.52L689.83-16.52Q689.47-15.10 689.47-12.51L689.47-12.51L689.47-12.51Q689.47-9.91 691.07-8.26L691.07-8.26L691.07-8.26Q692.66-6.61 695.02-6.37L695.02-6.37L695.02-6.37Q693.84-2.36 689.53 0L689.53 0L689.53 0Q685.23 2.36 680.39 2.36L680.39 2.36L680.39 2.36Q675.55 2.36 672.31 0.53L672.31 0.53L672.31 0.53Q669.06-1.30 668.12-4.37L668.12-4.37L668.12-4.37Q666.23-1.42 662.22 0.47L662.22 0.47L662.22 0.47Q658.20 2.36 652.84 2.36L652.84 2.36L652.84 2.36Q647.47 2.36 643.10 0.94L643.10 0.94L643.10 0.94Q638.73-0.47 635.96-3.54ZM660.86-51.45L660.86-51.45L660.86-51.45Q659.50-49.32 658.32-45.73L658.32-45.73L658.32-45.73Q657.14-42.13 655.20-32.51L655.20-32.51L655.20-32.51Q653.25-22.89 653.25-16.05L653.25-16.05L653.25-16.05Q653.25-9.20 654.31-7.20L654.31-7.20L654.31-7.20Q655.37-5.19 657.26-5.19L657.26-5.19L657.26-5.19Q661.04-5.19 663.81-8.79L663.81-8.79L663.81-8.79Q666.58-12.39 667.64-18.76L667.64-18.76L673.90-53.34L673.90-53.34Q671.42-55.46 668.53-55.46L668.53-55.46L668.53-55.46Q665.64-55.46 663.93-54.52L663.93-54.52L663.93-54.52Q662.22-53.57 660.86-51.45ZM741.87-33.16L741.87-33.16L741.87-33.16Q746.11-40.71 746.11-48.38L746.11-48.38L746.11-48.38Q746.11-53.45 742.46-53.45L742.46-53.45L742.46-53.45Q739.62-53.45 736.67-48.62L736.67-48.62L736.67-48.62Q733.61-43.78 732.66-37.52L732.66-37.52L726.53 0L702.10 2.36L714.14-60.18L733.61-62.54L731.48-50.62L731.48-50.62Q737.26-62.54 750.24-62.54L750.24-62.54L750.24-62.54Q757.09-62.54 760.81-59.00L760.81-59.00L760.81-59.00Q764.52-55.46 764.52-48.20L764.52-48.20L764.52-48.20Q764.52-40.95 759.74-36.34L759.74-36.34L759.74-36.34Q754.96-31.74 746.82-31.74L746.82-31.74L746.82-31.74Q743.28-31.74 741.87-33.16ZM763.22-6.96L763.22-6.96L763.22-6.96Q763.22-11.45 766.59-13.87L766.59-13.87L766.59-13.87Q769.95-16.28 774.91-16.28L774.91-16.28L774.91-16.28Q779.86-16.28 782.99-13.87L782.99-13.87L782.99-13.87Q786.12-11.45 786.12-6.96L786.12-6.96L786.12-6.96Q786.12-2.48 782.64 0L782.64 0L782.64 0Q779.15 2.48 774.20 2.48L774.20 2.48L774.20 2.48Q769.24 2.48 766.23 0L766.23 0L766.23 0Q763.22-2.48 763.22-6.96ZM769.60-29.15L769.60-29.15L769.60-29.15Q769.60-29.97 769.83-31.15L769.83-31.15L779.04-78.59L779.04-78.59Q783.40-80.24 788.59-80.24L788.59-80.24L788.59-80.24Q793.79-80.24 796.50-76.94L796.50-76.94L796.50-76.94Q799.21-73.63 799.21-68.73L799.21-68.73L799.21-68.73Q799.21-63.84 797.33-58.35L797.33-58.35L797.33-58.35Q795.44-52.86 793.14-47.32L793.14-47.32L793.14-47.32Q790.84-41.77 788.89-36.05L788.89-36.05L788.89-36.05Q786.94-30.33 786.82-24.31L786.82-24.31L786.82-24.31Q784.11-21.24 779.39-21.24L779.39-21.24L779.39-21.24Q774.67-21.24 772.13-23.42L772.13-23.42L772.13-23.42Q769.60-25.61 769.60-29.15Z" fill="#f18700"></path></g></g><style>text {
  font-size: 64px;
  font-family: Arial Black;
  dominant-baseline: central;
  text-anchor: middle;
}</style></svg>